<svg width="80" height="80" viewBox="0 0 80 80" fill="none" xmlns="http://www.w3.org/2000/svg">
<g id="Frame 7777">
<g id="Vector">
<mask id="path-1-inside-1_263_214760" fill="white">
<path d="M68.538 30.4645C69.2964 28.2172 69.5594 25.8362 69.3096 23.4807C69.0598 21.1251 68.3029 18.8494 67.0895 16.8058C65.291 13.7148 62.5436 11.2676 59.244 9.81717C55.9444 8.36679 52.263 7.98826 48.731 8.73622C47.138 6.96478 45.1799 5.54951 42.9876 4.58519C40.7953 3.62087 38.4197 3.12972 36.0195 3.14462C32.4085 3.13602 28.8881 4.25913 25.9656 6.35204C23.0432 8.44494 20.8699 11.3995 19.759 14.7897C17.4066 15.2649 15.1842 16.2304 13.2406 17.6216C11.297 19.0128 9.67701 20.7977 8.48912 22.8567C6.67614 25.9392 5.90226 29.51 6.27908 33.0547C6.65589 36.5991 8.16393 39.9338 10.5857 42.5779C9.82742 44.8252 9.56436 47.2062 9.81416 49.5617C10.0639 51.9173 10.8208 54.1929 12.0341 56.2366C13.8329 59.3275 16.5803 61.7745 19.8799 63.2249C23.1795 64.6753 26.8608 65.054 30.3927 64.3061C31.9857 66.0776 33.9439 67.4928 36.1361 68.4572C38.3284 69.4215 40.704 69.9126 43.1042 69.8978C46.717 69.9071 50.2394 68.7835 53.1628 66.6893C56.0864 64.595 58.2601 61.6383 59.3702 58.2461C61.7225 57.7709 63.9449 56.8055 65.8885 55.4142C67.832 54.023 69.452 52.2381 70.64 50.179C72.4507 47.0968 73.2228 43.5268 72.8449 39.9837C72.4673 36.4406 70.9591 33.1074 68.538 30.4645ZM43.1096 65.5339C40.1438 65.5381 37.2713 64.5132 34.9939 62.6388C35.0966 62.5836 35.2767 62.4861 35.3941 62.4152L48.8645 54.7377C49.2026 54.5479 49.4833 54.2727 49.6778 53.9403C49.8725 53.6078 49.9738 53.2303 49.9715 52.8467V34.1084L55.6651 37.3523C55.6949 37.367 55.7206 37.3887 55.7401 37.4155C55.7593 37.4424 55.7715 37.4736 55.7757 37.5062V53.0242C55.7715 56.3387 54.436 59.5164 52.0619 61.8611C49.6878 64.206 46.4685 65.5267 43.1096 65.5339ZM15.8699 54.0548C14.3844 51.5221 13.849 48.5547 14.3574 45.6718C14.4575 45.7311 14.6322 45.8364 14.7575 45.9075L28.2279 53.5848C28.5637 53.7784 28.9456 53.8805 29.3344 53.8805C29.7231 53.8805 30.105 53.7784 30.4407 53.5848L46.8866 44.2151V50.7029C46.8885 50.7359 46.8821 50.7691 46.8679 50.7992C46.8537 50.8292 46.8322 50.8554 46.8053 50.8753L33.1881 58.6329C30.2754 60.2882 26.8162 60.7356 23.5695 59.8774C20.3228 59.0191 17.5537 56.925 15.8699 54.0548ZM12.3262 25.0385C13.8052 22.5026 16.1414 20.561 18.9254 19.5535C18.9254 19.668 18.9187 19.8708 18.9187 20.0115V35.3664C18.9163 35.7499 19.0175 36.127 19.2119 36.4593C19.4062 36.7914 19.6866 37.0664 20.0244 37.2562L36.4703 46.6247L30.7768 49.8685C30.7487 49.8868 30.7164 49.8978 30.6829 49.9008C30.6494 49.9038 30.6156 49.8987 30.5846 49.8856L16.9662 42.1213C14.0586 40.4598 11.9373 37.7286 11.0675 34.5263C10.1977 31.3241 10.6504 27.9121 12.3262 25.0385ZM59.1048 35.7796L42.6587 26.4098L48.3523 23.1673C48.3804 23.1491 48.4127 23.1379 48.4462 23.1349C48.4797 23.1319 48.5134 23.1372 48.5443 23.1502L62.1629 30.9079C64.2493 32.0971 65.9491 33.848 67.0635 35.956C68.1777 38.0639 68.6603 40.4413 68.4548 42.8101C68.2493 45.1788 67.3639 47.4408 65.9027 49.3311C64.4414 51.2214 62.4646 52.6618 60.2036 53.4835C60.2036 53.3677 60.2036 53.1651 60.2036 53.0242V37.6694C60.2068 37.2865 60.1067 36.9097 59.9136 36.5776C59.7204 36.2455 59.4414 35.9701 59.1048 35.7796ZM64.7716 27.3639C64.6716 27.3033 64.4969 27.1994 64.3716 27.1284L50.901 19.4509C50.5653 19.2577 50.1835 19.1557 49.7947 19.1557C49.406 19.1557 49.0241 19.2577 48.6884 19.4509L32.2425 28.8208V22.333C32.2406 22.2998 32.247 22.2668 32.2612 22.2367C32.2754 22.2067 32.2969 22.1805 32.3238 22.1606L45.941 14.4094C48.0271 13.2225 50.4127 12.6463 52.8186 12.7482C55.2245 12.8501 57.5511 13.6259 59.5266 14.9849C61.5019 16.3438 63.0442 18.2297 63.9731 20.422C64.902 22.6142 65.179 25.022 64.7716 27.3639ZM29.147 38.9275L23.452 35.6836C23.4222 35.6689 23.3963 35.6472 23.377 35.6204C23.3578 35.5935 23.3454 35.5623 23.3413 35.5296V20.0115C23.3429 17.6348 24.0306 15.3076 25.3238 13.3025C26.6171 11.2973 28.4625 9.69716 30.644 8.68926C32.8255 7.68136 35.2527 7.30746 37.6417 7.61129C40.0308 7.91512 42.2827 8.88413 44.1338 10.4049C44.0312 10.4602 43.8524 10.5575 43.7337 10.6286L30.2633 18.306C29.9252 18.4956 29.6446 18.7706 29.4499 19.1028C29.2554 19.4349 29.1541 19.8122 29.1563 20.1957L29.147 38.9275ZM32.2398 32.3476L39.5646 28.1733L46.8892 32.3449V40.6908L39.5646 44.8626L32.2398 40.6908V32.3476Z"/>
</mask>
<path d="M68.538 30.4645C69.2964 28.2172 69.5594 25.8362 69.3096 23.4807C69.0598 21.1251 68.3029 18.8494 67.0895 16.8058C65.291 13.7148 62.5436 11.2676 59.244 9.81717C55.9444 8.36679 52.263 7.98826 48.731 8.73622C47.138 6.96478 45.1799 5.54951 42.9876 4.58519C40.7953 3.62087 38.4197 3.12972 36.0195 3.14462C32.4085 3.13602 28.8881 4.25913 25.9656 6.35204C23.0432 8.44494 20.8699 11.3995 19.759 14.7897C17.4066 15.2649 15.1842 16.2304 13.2406 17.6216C11.297 19.0128 9.67701 20.7977 8.48912 22.8567C6.67614 25.9392 5.90226 29.51 6.27908 33.0547C6.65589 36.5991 8.16393 39.9338 10.5857 42.5779C9.82742 44.8252 9.56436 47.2062 9.81416 49.5617C10.0639 51.9173 10.8208 54.1929 12.0341 56.2366C13.8329 59.3275 16.5803 61.7745 19.8799 63.2249C23.1795 64.6753 26.8608 65.054 30.3927 64.3061C31.9857 66.0776 33.9439 67.4928 36.1361 68.4572C38.3284 69.4215 40.704 69.9126 43.1042 69.8978C46.717 69.9071 50.2394 68.7835 53.1628 66.6893C56.0864 64.595 58.2601 61.6383 59.3702 58.2461C61.7225 57.7709 63.9449 56.8055 65.8885 55.4142C67.832 54.023 69.452 52.2381 70.64 50.179C72.4507 47.0968 73.2228 43.5268 72.8449 39.9837C72.4673 36.4406 70.9591 33.1074 68.538 30.4645ZM43.1096 65.5339C40.1438 65.5381 37.2713 64.5132 34.9939 62.6388C35.0966 62.5836 35.2767 62.4861 35.3941 62.4152L48.8645 54.7377C49.2026 54.5479 49.4833 54.2727 49.6778 53.9403C49.8725 53.6078 49.9738 53.2303 49.9715 52.8467V34.1084L55.6651 37.3523C55.6949 37.367 55.7206 37.3887 55.7401 37.4155C55.7593 37.4424 55.7715 37.4736 55.7757 37.5062V53.0242C55.7715 56.3387 54.436 59.5164 52.0619 61.8611C49.6878 64.206 46.4685 65.5267 43.1096 65.5339ZM15.8699 54.0548C14.3844 51.5221 13.849 48.5547 14.3574 45.6718C14.4575 45.7311 14.6322 45.8364 14.7575 45.9075L28.2279 53.5848C28.5637 53.7784 28.9456 53.8805 29.3344 53.8805C29.7231 53.8805 30.105 53.7784 30.4407 53.5848L46.8866 44.2151V50.7029C46.8885 50.7359 46.8821 50.7691 46.8679 50.7992C46.8537 50.8292 46.8322 50.8554 46.8053 50.8753L33.1881 58.6329C30.2754 60.2882 26.8162 60.7356 23.5695 59.8774C20.3228 59.0191 17.5537 56.925 15.8699 54.0548ZM12.3262 25.0385C13.8052 22.5026 16.1414 20.561 18.9254 19.5535C18.9254 19.668 18.9187 19.8708 18.9187 20.0115V35.3664C18.9163 35.7499 19.0175 36.127 19.2119 36.4593C19.4062 36.7914 19.6866 37.0664 20.0244 37.2562L36.4703 46.6247L30.7768 49.8685C30.7487 49.8868 30.7164 49.8978 30.6829 49.9008C30.6494 49.9038 30.6156 49.8987 30.5846 49.8856L16.9662 42.1213C14.0586 40.4598 11.9373 37.7286 11.0675 34.5263C10.1977 31.3241 10.6504 27.9121 12.3262 25.0385ZM59.1048 35.7796L42.6587 26.4098L48.3523 23.1673C48.3804 23.1491 48.4127 23.1379 48.4462 23.1349C48.4797 23.1319 48.5134 23.1372 48.5443 23.1502L62.1629 30.9079C64.2493 32.0971 65.9491 33.848 67.0635 35.956C68.1777 38.0639 68.6603 40.4413 68.4548 42.8101C68.2493 45.1788 67.3639 47.4408 65.9027 49.3311C64.4414 51.2214 62.4646 52.6618 60.2036 53.4835C60.2036 53.3677 60.2036 53.1651 60.2036 53.0242V37.6694C60.2068 37.2865 60.1067 36.9097 59.9136 36.5776C59.7204 36.2455 59.4414 35.9701 59.1048 35.7796ZM64.7716 27.3639C64.6716 27.3033 64.4969 27.1994 64.3716 27.1284L50.901 19.4509C50.5653 19.2577 50.1835 19.1557 49.7947 19.1557C49.406 19.1557 49.0241 19.2577 48.6884 19.4509L32.2425 28.8208V22.333C32.2406 22.2998 32.247 22.2668 32.2612 22.2367C32.2754 22.2067 32.2969 22.1805 32.3238 22.1606L45.941 14.4094C48.0271 13.2225 50.4127 12.6463 52.8186 12.7482C55.2245 12.8501 57.5511 13.6259 59.5266 14.9849C61.5019 16.3438 63.0442 18.2297 63.9731 20.422C64.902 22.6142 65.179 25.022 64.7716 27.3639ZM29.147 38.9275L23.452 35.6836C23.4222 35.6689 23.3963 35.6472 23.377 35.6204C23.3578 35.5935 23.3454 35.5623 23.3413 35.5296V20.0115C23.3429 17.6348 24.0306 15.3076 25.3238 13.3025C26.6171 11.2973 28.4625 9.69716 30.644 8.68926C32.8255 7.68136 35.2527 7.30746 37.6417 7.61129C40.0308 7.91512 42.2827 8.88413 44.1338 10.4049C44.0312 10.4602 43.8524 10.5575 43.7337 10.6286L30.2633 18.306C29.9252 18.4956 29.6446 18.7706 29.4499 19.1028C29.2554 19.4349 29.1541 19.8122 29.1563 20.1957L29.147 38.9275ZM32.2398 32.3476L39.5646 28.1733L46.8892 32.3449V40.6908L39.5646 44.8626L32.2398 40.6908V32.3476Z" fill="white" stroke="black" stroke-width="1.20368" mask="url(#path-1-inside-1_263_214760)"/>
</g>
</g>
</svg>
