<svg width="83" height="82" viewBox="0 0 83 82" fill="none" xmlns="http://www.w3.org/2000/svg">
<g id="link">
<g id="Group">
<path id="Vector" d="M46.8963 35.8307C44.1103 33.046 40.3324 31.4817 36.3933 31.4817C32.4542 31.4817 28.6763 33.046 25.8903 35.8307L15.3839 46.3333C12.5979 49.1192 11.0327 52.8977 11.0327 56.8376C11.0327 60.7775 12.5979 64.556 15.3839 67.3419C18.1699 70.1278 21.9486 71.6929 25.8886 71.6929C29.8286 71.6929 33.6073 70.1278 36.3933 67.3419L41.6448 62.0906M36.3933 46.3333C39.1794 49.1191 42.958 50.6841 46.898 50.6841C50.838 50.6841 54.6166 49.1191 57.4027 46.3333L67.9057 35.8307C70.6476 33.0357 72.1753 29.2713 72.1565 25.356C72.1377 21.4407 70.5739 17.6911 67.8053 14.9225C65.0366 12.1539 61.2869 10.5903 57.3714 10.5715C53.456 10.5527 49.6914 12.0803 46.8963 14.8221L41.6448 20.0734" stroke="white" stroke-width="4.37284" stroke-linecap="round" stroke-linejoin="round"/>
</g>
</g>
</svg>
