<svg width="76" height="76" viewBox="0 0 76 76" fill="none" xmlns="http://www.w3.org/2000/svg">
<g id="this tile logo" clip-path="url(#clip0_287_8105)">
<path id="Vector" d="M58.0547 0.0556641H18.4829C8.59976 0.0556641 0.587891 8.07003 0.587891 17.9562V57.5404C0.587891 67.4266 8.59976 75.4409 18.4829 75.4409H58.0547C67.9378 75.4409 75.9497 67.4266 75.9497 57.5404V17.9562C75.9497 8.07003 67.9378 0.0556641 58.0547 0.0556641Z" fill="white"/>
<g id="Group 2298">
<path id="Vector_2" d="M41.0402 43.1763C41.8206 43.1763 42.569 43.4864 43.1209 44.0384C43.6727 44.5904 43.9827 45.3391 43.9827 46.1197C43.9827 46.9004 43.6727 47.6491 43.1209 48.2011C42.569 48.7531 41.8206 49.0632 41.0402 49.0632H38.6766C38.523 49.0632 38.3758 49.0022 38.2672 48.8936C38.1586 48.785 38.0977 48.6377 38.0977 48.4841V46.1197C38.0977 45.3391 38.4077 44.5904 38.9595 44.0384C39.5113 43.4864 40.2598 43.1763 41.0402 43.1763Z" fill="black"/>
<path id="Vector_3" d="M20.6514 66.8919V46.1301H24.9093V50.9719C26.0873 50.369 27.4004 50.0787 28.7227 50.1286C30.045 50.1786 31.3324 50.5673 32.4616 51.2574C33.5908 51.9475 34.524 52.916 35.172 54.0701C35.8199 55.2242 36.1608 56.5254 36.1622 57.8491V66.8919H31.9043V57.8491C31.8759 56.9442 31.4966 56.0859 30.8467 55.4559C30.1968 54.8258 29.3272 54.4735 28.4222 54.4735C27.5172 54.4735 26.6476 54.8258 25.9977 55.4559C25.3478 56.0859 24.9685 56.9442 24.9401 57.8491V66.8919H20.6514Z" fill="black"/>
<path id="Vector_4" d="M9.29199 46.1301V57.5133C9.29199 60.0064 10.2818 62.3975 12.0439 64.1607C13.8059 65.924 16.1959 66.915 18.6882 66.9159V62.6669C17.3255 62.6669 16.0185 62.1254 15.0549 61.1615C14.0913 60.1976 13.5499 58.8902 13.5499 57.527V55.0085H18.6882V50.7492H13.5499V46.1301H9.29199Z" fill="black"/>
<path id="Vector_5" d="M38.1079 66.919V50.814H42.3522V66.919H38.1079Z" fill="black"/>
<path id="Vector_6" d="M50.4599 53.2813C51.0995 53.2668 51.7323 53.4144 52.2995 53.7104C52.8667 54.0064 53.3498 54.4411 53.7039 54.974L56.4614 52.4897C55.8164 51.5824 54.8982 50.9052 53.8409 50.5571C52.7907 50.1721 51.6812 49.9738 50.5627 49.9712C49.7366 49.9711 48.9137 50.0747 48.1134 50.2796C47.3486 50.4704 46.6245 50.7977 45.9759 51.2459C45.3501 51.6897 44.8315 52.2681 44.4584 52.9386C44.0703 53.677 43.8803 54.5035 43.9069 55.3373C43.856 56.2138 44.0852 57.0838 44.5611 57.8215C44.9949 58.4149 45.5616 58.8984 46.2157 59.2333C46.8975 59.5608 47.6163 59.8048 48.3566 59.9597C49.1377 60.0968 49.8639 60.2578 50.5284 60.4429C51.1116 60.5704 51.6703 60.7914 52.183 61.0974C52.3975 61.2314 52.5718 61.4209 52.6876 61.6459C52.8034 61.8709 52.8562 62.1229 52.8407 62.3755C52.8444 62.6858 52.747 62.9889 52.5632 63.239C52.3898 63.4792 52.1667 63.6791 51.9089 63.8249C51.6292 63.9847 51.3264 64.1002 51.0114 64.1676C50.7053 64.2343 50.393 64.2688 50.0797 64.2704C49.2968 64.2927 48.5225 64.1021 47.8394 63.7187C47.2127 63.3005 46.6438 62.8016 46.1472 62.235L43.4067 64.8221C44.177 65.7342 45.1761 66.4248 46.3013 66.8232C47.4484 67.2006 48.6496 67.387 49.857 67.3749C50.715 67.3735 51.5704 67.2817 52.409 67.1008C53.2141 66.9339 53.9846 66.6303 54.687 66.203C55.3611 65.8026 55.9286 65.2454 56.3415 64.5788C56.7979 63.8199 57.0251 62.9453 56.9958 62.0602C57.0463 61.1622 56.8178 60.2704 56.3415 59.5074C55.9151 58.8978 55.3474 58.4004 54.687 58.058C54.0058 57.6855 53.2726 57.4175 52.5118 57.263L50.3743 56.7456C49.8 56.618 49.2433 56.4212 48.7163 56.1596C48.511 56.0603 48.3395 55.9027 48.2231 55.7065C48.1067 55.5103 48.0507 55.2841 48.062 55.0563C48.0467 54.7784 48.1139 54.5021 48.2554 54.2625C48.3968 54.0228 48.6061 53.8304 48.8568 53.7096C49.3489 53.4398 49.8988 53.2928 50.4599 53.2813Z" fill="black"/>
<path id="Vector_7" d="M67.2493 64.1844C67.2493 64.7664 67.0768 65.3354 66.7537 65.8193C66.4305 66.3033 65.9711 66.6806 65.4336 66.9035C64.8962 67.1264 64.3047 67.1848 63.734 67.0715C63.1633 66.9583 62.639 66.6783 62.2273 66.267C61.8157 65.8556 61.5351 65.3315 61.4212 64.7607C61.3073 64.19 61.3651 63.5983 61.5873 63.0604C61.8095 62.5225 62.1861 62.0625 62.6695 61.7387C63.153 61.4149 63.7215 61.2416 64.3034 61.241C64.6901 61.2405 65.0731 61.3163 65.4305 61.464C65.7879 61.6118 66.1127 61.8285 66.3863 62.1019C66.6599 62.3752 66.8769 62.6999 67.025 63.0572C67.1731 63.4146 67.2493 63.7976 67.2493 64.1844Z" fill="black"/>
</g>
</g>
<defs>
<clipPath id="clip0_287_8105">
<rect width="75.3618" height="75.3853" fill="white" transform="translate(0.587402 0.0556641)"/>
</clipPath>
</defs>
</svg>
