<svg width="85" height="37" viewBox="0 0 85 37" fill="none" xmlns="http://www.w3.org/2000/svg">
<g id="Union">
<path d="M47.6445 0.513672C50.0014 0.513672 51.9121 2.42435 51.9121 4.78129C51.9121 7.13823 50.0014 9.04891 47.6445 9.04891H44.2299C43.7588 9.04891 43.3769 8.66697 43.3769 8.19582V4.78129C43.3769 2.42435 45.2875 0.513672 47.6445 0.513672Z" fill="white"/>
<path d="M17.5997 35.503L17.5997 4.8709L23.8646 4.8709V12.0164C25.4252 11.2143 27.1949 10.7615 29.0704 10.7615C35.3681 10.7615 40.4734 15.8668 40.4734 22.1646V35.5031H34.2086V22.1646C34.2086 19.3269 31.9081 17.0264 29.0704 17.0264C26.2326 17.0264 23.9322 19.3269 23.9322 22.1646V35.5031H17.6673L17.5997 35.503Z" fill="white"/>
<path d="M0.835938 4.8709V21.6679C0.835938 29.328 7.04565 35.5377 14.7057 35.5377V29.2728C10.5057 29.2728 7.10083 25.868 7.10083 21.6679V17.952H14.7058V11.6871H7.10083V4.8709H0.835938Z" fill="white"/>
<path d="M43.3609 35.5434V11.763H49.6258V35.5434H43.3609Z" fill="white"/>
<path d="M61.5935 15.4257C63.5959 15.4257 65.1911 16.2572 66.379 17.9202L70.4517 14.2547C69.4675 12.8972 68.1778 11.9468 66.5826 11.4038C64.9874 10.8268 63.3753 10.5384 61.7462 10.5384C60.5244 10.5384 59.3195 10.6911 58.1316 10.9965C56.9437 11.302 55.8916 11.7771 54.9752 12.422C54.0588 13.0669 53.3122 13.8984 52.7352 14.9166C52.1922 15.9008 51.9207 17.0717 51.9207 18.4293C51.9207 19.9906 52.2431 21.2124 52.8879 22.0948C53.5328 22.9772 54.3473 23.673 55.3316 24.1821C56.3158 24.6573 57.368 25.0136 58.488 25.2512C59.6419 25.4548 60.711 25.6924 61.6953 25.9639C62.6795 26.2015 63.4941 26.5239 64.1389 26.9312C64.7838 27.3385 65.1062 27.9664 65.1062 28.8149C65.1062 29.29 64.9705 29.7143 64.6989 30.0876C64.4614 30.427 64.1389 30.7155 63.7317 30.9531C63.3244 31.1906 62.8832 31.3603 62.408 31.4622C61.9329 31.564 61.4747 31.6149 61.0335 31.6149C59.7437 31.6149 58.6407 31.3434 57.7243 30.8003C56.8419 30.2234 56.0104 29.4937 55.2298 28.6112L51.157 32.4294C52.4128 33.8549 53.8382 34.8392 55.4334 35.3822C57.0286 35.9252 58.7765 36.1967 60.6771 36.1967C61.9329 36.1967 63.1886 36.061 64.4444 35.7895C65.7002 35.518 66.8202 35.0767 67.8044 34.4658C68.8226 33.8549 69.6372 33.0573 70.2481 32.0731C70.8929 31.0549 71.2154 29.8161 71.2154 28.3567C71.2154 26.7615 70.8929 25.5057 70.2481 24.5894C69.6032 23.673 68.7887 22.9603 67.8044 22.4512C66.8202 21.9081 65.7511 21.5178 64.5971 21.2803C63.4771 21.0087 62.425 20.7542 61.4407 20.5166C60.4565 20.279 59.6419 19.9906 58.9971 19.6512C58.3522 19.3118 58.0298 18.7687 58.0298 18.022C58.0298 17.1057 58.4201 16.4439 59.2007 16.0366C59.9813 15.6293 60.7789 15.4257 61.5935 15.4257Z" fill="white"/>
<path d="M84.8106 31.8537C84.8106 34.2523 82.8661 36.1968 80.4675 36.1968C78.0689 36.1968 76.1244 34.2523 76.1244 31.8537C76.1244 29.4551 78.0689 27.5107 80.4675 27.5107C82.8661 27.5107 84.8106 29.4551 84.8106 31.8537Z" fill="white"/>
</g>
</svg>
